<?xml version="1.0" encoding="UTF-8"?>
<svg id="Layer_1" data-name="Layer 1" xmlns="http://www.w3.org/2000/svg" xmlns:xlink="http://www.w3.org/1999/xlink" viewBox="0 0 907.67 886">
  <defs>
    <style>
      .cls-1 {
        fill: url(#linear-gradient-2);
      }

      .cls-2 {
        fill: url(#linear-gradient-6);
      }

      .cls-3 {
        fill: url(#linear-gradient-11);
      }

      .cls-4 {
        fill: #fff;
        opacity: .5;
        stroke: #000;
        stroke-miterlimit: 10;
      }

      .cls-5 {
        fill: url(#linear-gradient-10);
      }

      .cls-6 {
        fill: url(#linear-gradient-5);
      }

      .cls-7 {
        fill: url(#linear-gradient-7);
      }

      .cls-8 {
        fill: url(#linear-gradient-9);
      }

      .cls-9 {
        fill: url(#linear-gradient-3);
      }

      .cls-10 {
        fill: url(#linear-gradient);
      }

      .cls-11 {
        fill: url(#linear-gradient-4);
      }

      .cls-12 {
        fill: url(#linear-gradient-8);
      }

      .cls-13 {
        fill: url(#linear-gradient-12);
      }

      .cls-14 {
        fill: url(#linear-gradient-13);
      }
    </style>
    <linearGradient id="linear-gradient" x1="907.67" y1="443" x2="0" y2="443" gradientUnits="userSpaceOnUse">
      <stop offset="0" stop-color="#000"/>
      <stop offset="1" stop-color="#253237"/>
    </linearGradient>
    <linearGradient id="linear-gradient-2" x1="2.67" y1="616.51" x2="901.94" y2="616.51" gradientUnits="userSpaceOnUse">
      <stop offset=".04" stop-color="#253237"/>
      <stop offset=".17" stop-color="#5c6b73"/>
      <stop offset=".31" stop-color="#5c6b73"/>
      <stop offset=".44" stop-color="#c2dfe3"/>
      <stop offset=".53" stop-color="#c2dfe3"/>
      <stop offset=".64" stop-color="#5c6b73"/>
      <stop offset=".81" stop-color="#5c6b73"/>
      <stop offset=".94" stop-color="#253237"/>
    </linearGradient>
    <linearGradient id="linear-gradient-3" x1="278.54" y1="303.01" x2="823.67" y2="303.01" gradientUnits="userSpaceOnUse">
      <stop offset="0" stop-color="#e0fbfc"/>
      <stop offset=".18" stop-color="#c2dfe3"/>
      <stop offset=".38" stop-color="#9db4c0"/>
      <stop offset=".75" stop-color="#5c6b73"/>
      <stop offset="1" stop-color="#253237"/>
    </linearGradient>
    <linearGradient id="linear-gradient-4" y1="575.38" y2="575.38" xlink:href="#linear-gradient-3"/>
    <linearGradient id="linear-gradient-5" x1="109.67" y1="442.5" x2="836.67" y2="442.5" xlink:href="#linear-gradient-3"/>
    <linearGradient id="linear-gradient-6" x1="193.79" y1="556.75" x2="711.18" y2="556.75" gradientUnits="userSpaceOnUse">
      <stop offset="0" stop-color="#9db4c0"/>
      <stop offset=".45" stop-color="#c2dfe3"/>
      <stop offset="1" stop-color="#e0fbfc"/>
    </linearGradient>
    <linearGradient id="linear-gradient-7" x1="195.86" y1="442.69" x2="754.86" y2="442.69" gradientUnits="userSpaceOnUse">
      <stop offset=".3" stop-color="#5c6b73"/>
      <stop offset=".7" stop-color="#9db4c0"/>
    </linearGradient>
    <linearGradient id="linear-gradient-8" x1="192.93" y1="323.66" x2="649.7" y2="323.66" gradientUnits="userSpaceOnUse">
      <stop offset="0" stop-color="#000"/>
      <stop offset=".48" stop-color="#253237"/>
      <stop offset=".65" stop-color="#5c6b73"/>
    </linearGradient>
    <linearGradient id="linear-gradient-9" x1="358.81" y1="267.57" x2="417.91" y2="267.57" xlink:href="#linear-gradient-3"/>
    <linearGradient id="linear-gradient-10" x1="164" y1="275.29" x2="223.22" y2="275.29" xlink:href="#linear-gradient-3"/>
    <linearGradient id="linear-gradient-11" x1="456.81" y1="368.57" x2="515.91" y2="368.57" xlink:href="#linear-gradient-3"/>
    <linearGradient id="linear-gradient-12" x1="155.29" y1="216.44" x2="376.08" y2="216.44" xlink:href="#linear-gradient-3"/>
    <linearGradient id="linear-gradient-13" x1="153.75" y1="651" x2="367.16" y2="651" xlink:href="#linear-gradient-3"/>
  </defs>
  <path class="cls-10" d="m869.56,744.45c-35.4,60.77-100.92,91.53-127.07,103.81-71.86,33.74-144.38,35.31-286.49,37.07-150.56,1.87-227.19,2.12-293.43-31.51-77.32-39.27-114.46-98.94-127.07-122.35-22.39-41.56-25.83-77.21-32.35-144.59-3.56-36.85-2.78-57.65-2.31-127.91,1.06-158.68-2.33-145.58,0-163.13,3.61-27.19,22.4-168.86,154.8-246.55C246.04-3.76,346.07-1.54,465.23,1.1c123.12,2.73,217.03,4.81,298.05,57.47,131.23,85.3,140.28,245.87,143.25,298.45,1.25,22.2,1.78,72.25,0,124.2-1.84,53.45-5.54,91.97-6.93,105.66-8.68,85.57-13.02,128.35-30.04,157.57Z"/>
  <path class="cls-1" d="m855.85,762.43c-34.73,50.86-87.99,76.76-110.43,87.38-32.12,15.2-77.78,30.7-299.07,31.6-203.39.83-243.38-11.94-270.76-23.45-22.59-9.5-97.62-41.04-134.14-106.68-14.06-25.27-18.58-56.51-27.61-118.98-5.06-35-6.52-60.14-9.2-107.83-3.26-58.04-1.91-82.12,0-98.53.87-7.47,3.37-26.45,6.9-48.34,1.69-10.46,4.33-26.05,4.6-26.03.38.04-4.64,32.17-6.9,50.2-7.23,57.75-1.85,104.35,9.2,195.21,8.88,73,14.37,88.31,23.01,104.11,20.63,37.73,50.17,61.65,62.12,70.65,31.41,23.66,62.57,35.63,78.22,40.9,26.11,8.79,50.86,13.02,115.03,16.73,42.63,2.47,82.23,3.53,147.24,3.72,55.94.17,113.2-.36,181.74-5.58,27.01-2.05,51.15-4.48,80.52-13.01,37.28-10.83,62.54-25.55,75.92-33.46,23.51-13.91,54.42-32.21,75.92-63.21,4-5.77,13.06-19.74,25.31-79.94,6.64-32.65,13.6-67.65,16.1-118.98,3.05-62.66-2.58-107.82-2.3-107.83.28-.01,5.38,47.99,4.6,113.41-.37,31-.87,63.15-6.9,104.11-9.43,63.99-14.39,97.65-39.11,133.86Z"/>
  <path class="cls-9" d="m823.67,437.79c.05-.71-3.75-1.13-8.46-2.58-8.85-2.72-14.79-7.17-24.17-14.2-6.48-4.86-9.72-7.29-12.08-10.33-4.1-5.29-6.15-10.79-8.46-10.33-1.51.3-1.02,2.85-3.63,5.16-3.98,3.53-9.4,2.63-9.67,2.58-1.15-.21-1.14-.4-6.04-2.58-3.21-1.43-4.73-2.01-6.04-2.58-4.99-2.16-7.95-4.47-13.29-7.75-3.66-2.24-2.28-1.17-16.92-9.04-9.11-4.9-9.1-5.02-12.08-6.45-3.61-1.73-5.96-2.67-15.71-6.45-16.88-6.54-18.64-7.14-20.54-7.75-10.02-3.2-14.83-3.85-18.13-3.87-4.29-.02-7.25,0-7.25,0-5.53.05-5.38.15-6.04,0-3.9-.9-4.66-3.54-9.67-6.45-1.65-.96-3.14-1.52-6.04-2.58-5.5-2.02-11.55-4.24-18.13-5.16-11.61-1.63-18.88,1.6-19.34,0-.38-1.36,4.59-4.64,9.67-6.45,8.89-3.17,15.17-.78,15.71-2.58.64-2.13-7.59-7.43-15.71-10.33-5.42-1.93-11.18-3.98-18.13-2.58-7.07,1.43-6.75,4.69-18.13,9.04-1.08.41-5.15,1.56-13.29,3.87-6.37,1.8-9.26,2.55-13.29,2.58-4.45.03-8.48-.83-8.46-1.29.02-.47,4.31,0,9.67-1.29,3.87-.93,7.06-2.78,13.29-6.45,5.22-3.08,9.79-6.18,14.5-10.33,6.23-5.49,6.2-7.07,6.04-7.75-.53-2.28-4.08-1.19-10.88-5.16-2.89-1.69-4.83-3.4-8.46-3.87-1.7-.22-2.99-.07-3.63,0,0,0-6.93.73-16.92-1.29-4.21-.85-8.5-3.59-16.92-9.04-5.53-3.58-9.81-6.74-18.13-12.91-11.2-8.31-12.85-9.87-18.13-12.91-6.58-3.79-9.87-5.68-13.29-6.45-3.13-.71-5.18-.63-7.25-2.58-2.36-2.22-1.83-4.32-4.83-7.75-.87-.99-2.5-2.63-4.83-3.87-4.57-2.44-8.22-1.44-8.46-2.58-.24-1.15,3.39-2.44,7.25-5.16,3.24-2.29,5.43-5,9.67-10.33,5.13-6.45,8.73-12.04,10.88-15.49,7.98-12.83,11.97-19.25,13.29-27.11.86-5.11,2.31-13.69-2.42-18.07-4.2-3.9-12.19-3.46-14.5,0-.92,1.38-.45,2.49-1.21,6.45-.64,3.34-1.64,5.98-2.42,7.75-1.81,1.98-4.64,4.83-8.46,7.75-5.94,4.53-11.16,6.82-13.29,7.75-16.09,6.96-24.13,10.43-38.67,15.49-24.02,8.35-40.26,25.19-48.34,33.56-17.34,17.98-25.66,36.22-35.05,56.8-9.15,20.06-13.82,36.36-18.13,51.63-8.53,30.23-13,57.85-12.08,58.09.56.15,2.73-10.15,8.46-27.11,5.24-15.52,9.84-29.14,18.13-43.89,7.2-12.81,15.26-27.15,31.42-38.73,6.44-4.62,18.91-13.31,36.25-14.2,10.84-.55,19.77,2.13,25.38,3.87,16.13,5,24.69,12.7,25.38,11.62.73-1.15-8.07-11.22-20.54-15.49-2.77-.95-5.47-1.49-10.88-2.58-1.14-.23-10.3-2.06-16.92-2.58-2.55-.2-15.71-1.08-29,3.87-18.97,7.07-29.73,22.84-33.84,29.69,5.24-10.33,10.47-20.65,15.71-30.98,9.67-11.19,19.34-22.38,29-33.56,13.35-12.25,24.58-17.84,32.63-20.65,2.56-.89,12.08-4.06,25.38-9.04,6.29-2.35,7.96-3.07,9.67-3.87,13.31-6.25,19.96-13.58,20.54-12.91.69.8-7.8,12.16-20.54,23.24,0,0-17.95,15.6-37.46,23.24-7.77,3.04-10.88,3.87-10.88,3.87-5.59,1.49-8.32,1.49-8.46,2.58-.26,1.95,8.07,4.72,13.29,6.45,5.58,1.85,8.37,2.78,10.88,2.58,2.9-.23,4.57-1.22,14.5-7.75,9.62-6.33,10.71-7.14,13.29-7.75,7.4-1.72,14.55,1.23,14.5,2.58-.04,1.18-5.52.13-10.88,3.87-4.56,3.18-7.91,9.05-8.46,15.49-.66,7.77,2.7,17,8.46,19.36,3.47,1.42,7.3.14,8.46,2.58.21.44.21.75,0,5.16-.2,4.24-.23,4.57,0,5.16,1.11,2.87,4.96,3.65,6.04,3.87,1.15.23,5.16,1.05,7.25-1.29,1.56-1.75.6-3.63,1.21-7.75.78-5.25,2.86-5.63,4.83-11.62,2.42-7.33.41-10.1,2.42-11.62,2.33-1.75,8.43,2.25,20.54,10.33,12.72,8.48,19.07,12.72,19.34,12.91,10.28,7.41,12.85,10.11,19.34,12.91,5.91,2.55,11.14,3.48,14.5,3.87-3.08,2.04-10.4,6.29-20.54,6.45-10.85.17-18.69-4.43-21.75-6.45-2.26-1.87-5.42-4.81-8.46-9.04-5.04-7-6.61-13.14-7.25-12.91-.69.26.49,7.79,3.63,15.49,1.54,3.77,3.49,8.55,7.25,12.91,9.02,10.44,18.17,6.51,31.42,16.78,1.54,1.2,4.23,3.43,8.46,5.16,3.32,1.36,3.86.89,10.88,2.58,7.84,1.89,8.59,2.83,12.08,2.58,3.07-.22,3.08-.98,7.25-1.29,3.2-.24,3.36.2,8.46,0,2.54-.1,4.59-.29,6.82-.69,1.56-.28,2.69-.56,2.85-.6,2.58-.62,9.76,1.04,27.79,9.04,2.19,1.63,5.43,3.69,9.67,5.16,4.16,1.44,7.17,1.58,7.25,2.58.09,1.15-3.8,1.83-8.46,3.87-9.35,4.1-15.09,10.75-16.92,12.91-2.08,2.46-4.85,6.26-7.25,11.62,13.12-7.95,23.92-13.2,30.21-15.49,4.93-1.8,8.67-2.36,10.88-2.58,3.58-.36,5.36-.55,7.25,0,5.64,1.63,5.07,6.38,12.08,10.33,2.91,1.64,4.31,1.55,7.25,3.87,2.05,1.61,2.41,3.29,4.83,5.16,2.16,1.67,4.12,2.32,4.83,2.58,6.22,2.28,14.23,10.37,16.92,12.91,9.3,8.76,21.06,13.34,26.59,15.49,24.29,9.46,48.35,2.42,48.34,1.29,0-.52-5.13.09-13.29-2.58-3.86-1.26-9.18-3.06-14.5-7.75-5.93-5.22-8.46-10.33-8.46-10.33-1.53-2.84-2.34-5.34-4.83-6.45-1.15-.52-1.73-.32-6.04,0-7.53.55-9.02.19-9.67,0-2.1-.6-3.07-1.55-6.04-3.87-3.52-2.75-7.27-5.13-10.88-7.75-10.2-7.38-14.84-9.46-14.5-10.33.46-1.19,9.43,1.72,12.08,2.58,8.16,2.65,14.07,5.62,15.71,6.45,6.32,3.22,10.44,6,16.92,10.33,15.29,10.21,22.93,15.32,25.38,16.78,11.23,6.71,20.34,10.71,25.38,12.91,12.12,5.28,18.18,7.92,25.38,9.04,4.27.66,12.11.44,27.79,0,9.27-.26,13.24-.57,13.29-1.29Z"/>
  <path class="cls-11" d="m823.67,440.6c.05.71-3.75,1.13-8.46,2.58-8.85,2.72-14.79,7.17-24.17,14.2-6.48,4.86-9.72,7.29-12.08,10.33-4.1,5.29-6.15,10.79-8.46,10.33-1.51-.3-1.02-2.85-3.63-5.16-3.98-3.53-9.4-2.63-9.67-2.58-1.15.21-1.14.4-6.04,2.58-3.21,1.43-4.73,2.01-6.04,2.58-4.99,2.16-7.95,4.47-13.29,7.75-3.66,2.24-2.28,1.17-16.92,9.04-9.11,4.9-9.1,5.02-12.08,6.45-3.61,1.73-5.96,2.67-15.71,6.45-16.88,6.54-18.64,7.14-20.54,7.75-10.02,3.2-14.83,3.85-18.13,3.87-4.29.02-7.25,0-7.25,0-5.53-.05-5.38-.15-6.04,0-3.9.9-4.66,3.54-9.67,6.45-1.65.96-3.14,1.52-6.04,2.58-5.5,2.02-11.55,4.24-18.13,5.16-11.61,1.63-18.88-1.6-19.34,0-.38,1.36,4.59,4.64,9.67,6.45,8.89,3.17,15.17.78,15.71,2.58.64,2.13-7.59,7.43-15.71,10.33-5.42,1.93-11.18,3.98-18.13,2.58-7.07-1.43-6.75-4.69-18.13-9.04-1.08-.41-5.15-1.56-13.29-3.87-6.37-1.8-9.26-2.55-13.29-2.58-4.45-.03-8.48.83-8.46,1.29.02.47,4.31,0,9.67,1.29,3.87.93,7.06,2.78,13.29,6.45,5.22,3.08,9.79,6.18,14.5,10.33,6.23,5.49,6.2,7.07,6.04,7.75-.53,2.28-4.08,1.19-10.88,5.16-2.89,1.69-4.83,3.4-8.46,3.87-1.7.22-2.99.07-3.63,0,0,0-6.93-.73-16.92,1.29-4.21.85-8.5,3.59-16.92,9.04-5.53,3.58-9.81,6.74-18.13,12.91-11.2,8.31-12.85,9.87-18.13,12.91-6.58,3.79-9.87,5.68-13.29,6.45-3.13.71-5.18.63-7.25,2.58-2.36,2.22-1.83,4.32-4.83,7.75-.87.99-2.5,2.63-4.83,3.87-4.57,2.44-8.22,1.44-8.46,2.58-.24,1.15,3.39,2.44,7.25,5.16,3.24,2.29,5.43,5,9.67,10.33,5.13,6.45,8.73,12.04,10.88,15.49,7.98,12.83,11.97,19.25,13.29,27.11.86,5.11,2.31,13.69-2.42,18.07-4.2,3.9-12.19,3.46-14.5,0-.92-1.38-.45-2.49-1.21-6.45-.64-3.34-1.64-5.98-2.42-7.75-1.81-1.98-4.64-4.83-8.46-7.75-5.94-4.53-11.16-6.82-13.29-7.75-16.09-6.96-24.13-10.43-38.67-15.49-24.02-8.35-40.26-25.19-48.34-33.56-17.34-17.98-25.66-36.22-35.05-56.8-9.15-20.06-13.82-36.36-18.13-51.63-8.53-30.23-13-57.85-12.08-58.09.56-.15,2.73,10.15,8.46,27.11,5.24,15.52,9.84,29.14,18.13,43.89,7.2,12.81,15.26,27.15,31.42,38.73,6.44,4.62,18.91,13.31,36.25,14.2,10.84.55,19.77-2.13,25.38-3.87,16.13-5,24.69-12.7,25.38-11.62.73,1.15-8.07,11.22-20.54,15.49-2.77.95-5.47,1.49-10.88,2.58-1.14.23-10.3,2.06-16.92,2.58-2.55.2-15.71,1.08-29-3.87-18.97-7.07-29.73-22.84-33.84-29.69,5.24,10.33,10.47,20.65,15.71,30.98,9.67,11.19,19.34,22.38,29,33.56,13.35,12.25,24.58,17.84,32.63,20.65,2.56.89,12.08,4.06,25.38,9.04,6.29,2.35,7.96,3.07,9.67,3.87,13.31,6.25,19.96,13.58,20.54,12.91.69-.8-7.8-12.16-20.54-23.24-10.43-8.03-22.88-16.16-37.46-23.24-4.11-2-8.15-3.79-12.08-5.4-5.61.28-7.08-.35-7.25-1.06-.4-1.68,6.19-4.99,10.88-6.69,4.45-1.61,8.41-3.05,13.29-2.35,1.72.25,3.74.67,14.5,7.75,9.62,6.33,10.71,7.14,13.29,7.75,7.4,1.72,14.55-1.23,14.5-2.58-.04-1.18-5.52-.13-10.88-3.87-4.56-3.18-7.91-9.05-8.46-15.49-.66-7.77,2.7-17,8.46-19.36,3.47-1.42,7.3-.14,8.46-2.58.21-.44.21-.75,0-5.16-.2-4.24-.23-4.57,0-5.16,1.11-2.87,4.96-3.65,6.04-3.87,1.15-.23,5.16-1.05,7.25,1.29,1.56,1.75.6,3.63,1.21,7.75.78,5.25,2.86,5.63,4.83,11.62,2.42,7.33.41,10.1,2.42,11.62,2.33,1.75,8.43-2.25,20.54-10.33,12.72-8.48,19.07-12.72,19.34-12.91,10.28-7.41,12.85-10.11,19.34-12.91,5.91-2.55,11.14-3.48,14.5-3.87-3.08-2.04-10.4-6.29-20.54-6.45-10.85-.17-18.69,4.43-21.75,6.45-2.26,1.87-5.42,4.81-8.46,9.04-5.04,7-6.61,13.14-7.25,12.91-.69-.26.49-7.79,3.63-15.49,1.41-3.45,3.29-8.08,7.25-12.91,7.71-9.38,17.64-12.62,19.34-13.14,5-1.56,7.16-1.03,12.08-3.64,3.93-2.08,4.41-3.5,8.46-5.16,3.32-1.36,3.86-.89,10.88-2.58,7.84-1.89,8.59-2.83,12.08-2.58,3.07.22,3.08.98,7.25,1.29,3.2.24,3.36-.2,8.46,0,2.54.1,4.59.29,6.82.69,1.56.28,2.69.56,2.85.6,2.58.62,9.76-1.04,27.79-9.04,2.19-1.63,5.43-3.69,9.67-5.16,4.16-1.44,7.17-1.58,7.25-2.58.09-1.15-3.8-1.83-8.46-3.87-9.35-4.1-15.09-10.75-16.92-12.91-2.08-2.46-4.85-6.26-7.25-11.62,13.16,7.27,23.95,11.94,30.21,13.97,2.31.75,4.76,1.36,9.67,2.58,6.14,1.53,7.19,1.59,8.46,1.29,2.53-.59,1.94-1.63,8.46-6.45,5.29-3.91,8.76-6.07,8.76-6.07.71-.44,1.3-.8,2.11-1.44,2.05-1.61,2.41-3.29,4.83-5.16,2.16-1.67,4.12-2.32,4.83-2.58,6.22-2.28,14.23-10.37,16.92-12.91,9.3-8.76,21.06-13.34,26.59-15.49,24.29-9.46,48.35-2.42,48.34-1.29,0,.52-5.13-.09-13.29,2.58-3.86,1.26-9.18,3.06-14.5,7.75-5.93,5.22-8.46,10.33-8.46,10.33-1.53,2.84-2.34,5.34-4.83,6.45-1.15.52-1.73.32-6.04,0-7.53-.55-9.02-.19-9.67,0-2.1.6-3.07,1.55-6.04,3.87-3.52,2.75-7.27,5.13-10.88,7.75-10.2,7.38-14.84,9.46-14.5,10.33.46,1.19,9.43-1.72,12.08-2.58,8.16-2.65,14.07-5.62,15.71-6.45,6.32-3.22,10.44-6,16.92-10.33,15.29-10.21,22.93-15.32,25.38-16.78,11.23-6.71,20.34-10.71,25.38-12.91,12.12-5.28,18.18-7.92,25.38-9.04,4.27-.66,12.11-.44,27.79,0,9.27.26,13.24.57,13.29,1.29Z"/>
  <path class="cls-6" d="m836.67,449.17c-8.05-.07-32.87-.99-54.74-13.46-12.46-7.11-19.06-15.18-22.39-20.2-.96-4.75-3.95-14.01-14.93-21.88-1.37-.98-19.25-13.53-32.35-10.1-5.69,1.49-5.51,4.69-9.95,5.05-7.95.64-11.26-9.39-27.37-18.51-6.71-3.8-15.89-9.02-27.37-8.42-14.38.76-23.2,9.96-24.88,11.78-13.7-12.29-35.36-28.8-67.18-43.76-5.1-2.4-29.76-13.77-67.18-23.56-23.13-6.05-25.69-4.84-89.57-16.83-49.79-9.35-62.8-12.82-74.65-21.88-13.29-10.17-20.89-24.16-22.39-26.93-5.98-11.02-5.03-15.6-9.95-26.93-3.49-8.03-9.84-19.24-22.39-31.98-5.71-6.13-15.87-15.39-32.35-23.56-10.03-4.98-20.07-9.96-34.83-11.78-21.92-2.7-47.95,2.35-64.69,15.15-15.66,11.97-16.78,25.82-17.42,33.66-1.31,16.15,6.5,30.49,9.95,30.3,3-.17-.39-11.17,9.95-21.88,7.15-7.41,17.15-10.82,24.88-13.46,6.79-2.32,28.91-9.88,54.74-5.05,14.16,2.65,23.18,7.85,29.86,11.78,20.11,11.85,28.63,26.57,32.35,35.35,3.44,6.32,8.56,15.66,14.93,26.93,12.7,22.47,19.12,33.77,22.39,37.03,13.49,13.44,37.37,19.24,84.6,30.3,19.18,4.49,46.23,10.19,79.62,15.15,13.25,3.88,32.16,9.56,54.74,16.83,30.79,9.92,37.57,12.87,42.3,15.15,12.3,5.93,29.8,16.48,44.79,35.35,2.02-2.66,8.6-10.52,19.91-11.78,11.4-1.27,21.38,4.87,29.86,10.1,18.23,11.23,22.74,22.78,29.86,21.88,5.63-.71,5-8.21,12.44-10.1,6.89-1.74,15.73,2.58,22.39,6.73,5.29,5.32,8.25,10.09,9.95,13.46,2.52,4.98,2.54,7.36,2.49,8.42-.14,2.93-1.38,5.75-4.98,10.1-6.32,7.65-14.24,17.21-24.88,16.83-1.91-.07-5.57-.52-9.95-3.37-2.62-2.05-5.21-2.97-7.46-3.37-12.55-2.18-30.48,9.35-44.79,28.61-3.5-.82-8.64-1.72-14.93-1.68-4.26.03-5.15.46-7.46,0-7.36-1.46-7.52-7.64-12.44-8.42-4.79-.75-10.03,4.27-14.93,8.42-8.06,6.82-18.45,12.21-27.37,18.51-4.71,3.33-15.42,10.15-49.76,20.2-47.81,13.98-75.59,14.95-129.39,26.93-49.94,11.13-74.91,16.69-89.57,28.61-23.01,18.71-10.37,31.07-37.32,65.64-14.17,18.18-27.89,35.78-57.23,43.76-20.54,5.59-56.88,8.68-79.62-6.73-14.81-10.04-16.99-23.27-17.42-28.61-2.19,1.92-5.03,4.74-7.46,8.42-11.18,16.88-1.94,33.72,0,37.03,8.06,13.73,26.86,26.95,49.76,30.3,52.02,7.59,108-38.3,116.94-62.28,1.06-2.84,4.02-9.75,9.95-23.56,5.75-13.4,7.64-17.43,12.44-21.88,8.06-7.47,18.62-10.79,27.37-13.46,59.55-18.18,69.67-20.2,69.67-20.2,80.31-15.98,94.78-17.09,131.87-26.93,47.34-12.56,58.85-20.07,64.69-28.61,4.58-6.69,8.25-17.77,17.42-18.51,4.2-.34,5.65,1.8,17.42,5.05,8.24,2.27,13.92,3.84,19.91,3.37,5.87-.47,9.99-2.75,19.91-10.1,16.1-11.94,27.84-22.7,29.86-21.88.98.4-1.57,3.02,0,6.73,1.04,2.45,3.42,4.3,4.98,5.05,5.59,2.69,18.4-.23,29.86-8.42,11.85-7.47,17.23-14.67,19.91-20.2,4.26-8.81,1.42-12.9,7.46-18.51,1.66-1.55,6.54-5.57,29.86-10.1,10.01-1.94,24.38-4.17,42.3-5.05Z"/>
  <path class="cls-4" d="m213.17,652c-30.33-38.96-10.63-66.77-16-239-.27-8.59.64-46.24-.52-80.25-.13-3.76-.25-7.43-.48-14.75-1.35-41.69-1.33-46.22-1.09-51.16.8-16.49,1.34-27.85,6.09-38.84,14.4-33.32,58.81-43.05,67-45,34.25-8.16,62.77,1.73,105,17,20.95,7.58,36.53,14.98,80,38,91.35,48.39,80.48,46.39,121,66,40.52,19.61,80,41.41,121,60,12.68,5.75,24.25,10.82,35,23,22.76,25.8,27.78,67.57,15,98-9.84,23.43-28.42,35.8-79,61-120.29,59.92-168.1,66.09-238,104-2.13,1.15-29.1,15.8-67,31-28.92,11.6-43.68,17.41-58,18-36.01,1.48-70.99-22.57-90-47Z"/>
  <path class="cls-2" d="m197.17,533c6.12-2.8,16.98,17.1,29,25,16.47,10.83,45.42,14.36,100-12,9.32-3.26,27.79-8.15,49-3,11.84,2.88,20.03,7.79,22,9,11.03,6.79,14.7,13.2,23,22,11.96,12.68,22.69,18.81,44,31,0,0,25.66,14.68,39,11,3.94-1.09,7-3,7-3,2.88-1.8,3.98-3.34,6-5,4.28-3.52,8.69-4.34,11-5,6.4-1.84,33.51-13.19,40-33,5.64-17.22-6.34-34.62-8-37-8.58-12.32-17.64-12.3-42-25-22.34-11.65-45.83-26.3-56-46-7.02-13.61-12.71-36.08-3.5-44.5,12.06-11.03,44.5,6.8,58.5,14.5,8.4,4.62,19.58,10.92,30,23,3.91,4.53,7.94,10.69,16,23,9.52,14.54,11.89,19.6,19,26,5.56,5,10.42,7.57,17,11,5.81,3.03,24.13,12.02,51,15,9.66,1.07,19.41,2.08,32,0,18.32-3.03,29.75-10.49,30-10,.48.94-42.68,26.91-106,55-6.7,2.97-1.62,1.35-63,27-63.73,26.63-80.63,36.37-112.88,50.64-17.96,7.95-15.38,6.22-34.12,14.36-41.64,18.08-45.57,22.25-64,27-13.77,3.55-26.26,6.77-43,5-23.67-2.5-39.91-13.29-53-22-12.47-8.29-24.59-17.02-32-33-2.4-5.16-3.63-12.18-6-26-3.96-23.08-3.64-40.05-3-74,.09-4.7.24-9.74,3-11Z"/>
  <path class="cls-7" d="m197.17,389c4.66-1.12,17.78,34.06,31.67,46.56,8.08,7.27,15.39,11.3,19.33,13.44,0,0,0,0,0,0,0,0,1.31.72,2.6,1.39,47.45,24.77,82.4,4.61,82.4,4.61,1.29-.74,3.45-2.06,6-4,6.06-8.62,25.9-38.72,15-61-6.87-14.04-25.68-22.58-38-30-22.48-13.55-28.23-14.51-41-26-11.37-10.23-21.79-19.89-22-34-.15-9.94,4.78-21.26,14-27,6.48-4.04,14.38-4.87,25-3,35.57,6.25,79.04,38.79,91,48,41.07-12.86,78.99-10.15,102,0,8.55,3.77,30.23,14.99,50,36,0,0,0,0,0,0,8.31,9.48,10.1,14.37,20,23,7.27,6.34,22.17,18.99,44,22,4.33.6,35.94,4.53,44-10,8.96-16.16-18.92-41.23-12-49,4.76-5.35,24.51,4.43,64,24,14.93,7.4,24.77,12.86,35,23,2.44,2.42,12.34,12.48,18,24,14.02,28.56,5.98,74.35-24,100-29.66,25.37-67.74,19.61-85,17-12.89-1.95-46.82-7.08-69-33-12.68-14.81-15.05-28.85-37-49-10.95-10.05-18.91-14.4-22-16-15.02-7.77-43.57-17.05-53-6-8.93,10.46,3.51,34.16,5,37,10.01,19.08,33.25,33.43,56,46,27.96,15.45,34.53,14.44,42,25,13.14,18.58,14.63,48.44,1,61-.68.63-.17.07-20,9-12.06,5.43-16.58,7.58-24,10-5.57,1.82-9.88,3.22-15,4,0,0-31.32,4.73-62.39-21.72-1.26-1.07-2.15-1.87-2.61-2.28-4.1-3.62-2.82-3.12-18-18-14.8-14.51-22.2-21.76-26-24-19.13-11.25-40.05-9.45-46-9-35.96,2.74-37.95,22.81-74,26-26.03,2.3-43.88-6.79-48-9-6.43-3.45-20.13-10.81-27-26-3.65-8.07-3.62-14.49-3-34,1.03-32.51,1.77-40.87,2-52,.72-35.19-4.54-56.15-1-57Z"/>
  <path class="cls-12" d="m196.17,333c.26,9.98.04,15.34,0,23-.05,10.68.24,26.41,1,33,2.98,26.01,28.61,44.46,40,53,13.43,10.07,47.79,35.85,83,23,19.64-7.17,38.19-26.51,41-49,.48-3.86,1.4-11.91-2-21-4.82-12.89-14.71-18.24-43-35-35.12-20.8-41.68-25.46-48-35-3.54-5.34-13.13-19.81-8-34,.44-1.22,3.61-9.57,12-14,9.6-5.07,19.96-1.8,32,2,8.82,2.78,15.6,6.37,20,9,13.37,6.18,23.37,12.45,30,17,12.36,8.49,15.99,13.07,25,15,10.15,2.18,16.8-1.17,28-4,0,0,21.5-5.43,48-3,24.48,2.25,41.36,15.97,66,36,20.84,16.94,28.65,28.81,55,45,8.93,5.49,17.1,9.69,28,11,17.9,2.15,32.61-4.76,40-9,1.47-1.74,3.92-5.12,5-10,.95-4.29.39-7.72,0-10-.66-3.82-1.89-7.07-5-13-6.57-12.53-10.6-16.26-9-19,1.67-2.87,7.54-1.25,8-3,.57-2.16-8.02-5.99-18-11-13.51-6.78-9.28-5.15-26-14-11.29-5.98-18.25-8.86-25-12-22.86-10.63-33.99-19.84-54-32-20.7-12.58-18.45-8.51-60-30-31.42-16.25-30.63-17.21-49-26-17.99-8.61-38.77-18.55-66-26-33.27-9.1-55.48-15.27-83-8-8.09,2.14-38.42,10.16-56,37-8.73,13.32-11.64,27.2-12,29-1.54,7.66-1.36,15.11-1,30,.12,4.78.21,4.86,2,35,.67,11.38.86,14.79,1,20Z"/>
  <path class="cls-8" d="m361.17,251c7.57-10.06,29.31-.75,31,0,15.59,6.88,29.08,23.84,25,32-3.79,7.58-22.15,6.32-32,4-8.18-1.92-14.29-5.46-18-8-8.41-10.02-10.62-21.86-6-28Z"/>
  <path class="cls-5" d="m170.17,256c7.43-6.91,18.28-4.5,25-3,4.78,1.06,22.4,4.98,27,20,3.08,10.04-1.45,19.18-3,22-3.23,1.49-17,7.41-33,2-10.82-3.66-17.3-10.68-20-14-3.99-10.34-2.38-21.06,4-27Z"/>
  <path class="cls-3" d="m459.17,352c7.57-10.06,29.31-.75,31,0,15.59,6.88,29.08,23.84,25,32-3.79,7.58-22.15,6.32-32,4-8.18-1.92-14.29-5.46-18-8-8.41-10.02-10.62-21.86-6-28Z"/>
  <path class="cls-13" d="m368.89,77.5c.88-.12,4.07,13.94,5.6,24.41,0,0,0,.02,0,.02,0,0,1.2,8.19,1.5,16.23.16,4.23.29,20.02-1.78,27.11-4.87,16.64-30.91,16.02-80,35.58-31.99,12.75-52.28,25.5-62.22,32.19-13.45,9.05-21.27,14.31-30.22,23.72-6.05,6.36-29.54,32.43-33.78,71.16-2.93,26.85,4.82,46.72,1.78,47.44-2.55.6-9.31-13.1-12.44-27.11-3.5-15.63-1.82-28.66,0-38.97,6.38-36.04,11.77-66.48,37.33-93.18,7.67-8.01,16.37-13.81,33.78-25.41,25.35-16.9,43.41-28.94,69.33-35.58,13.05-3.34,25.74-8.3,39.11-10.17,7.03-.98,16.15-1.79,23.11-8.47,4.18-4.01,5.89-8.52,7.11-11.86,5.24-14.27.94-26.99,1.78-27.11Z"/>
  <path class="cls-14" d="m360,792.5c.88.12,4.07-13.94,5.6-24.41,0,0,0-.02,0-.02,0,0,1.2-8.19,1.5-16.23.16-4.14,0-20.26-1.78-27.11-4.7-18.03-33.74-19.2-81.78-40.68-36.31-16.24-55.57-31.6-60.44-35.58-10.46-8.54-22.67-18.66-33.78-35.58-4.79-7.3-18.78-29.14-21.33-59.3-2.03-24.02,4.06-42.97,0-44.05-3.03-.81-8.37,9.2-8.89,10.17-5.56,10.41-5.45,20.31-5.33,25.41.7,30.21,1.05,45.31,1.78,49.13,2.17,11.38,7.64,38.42,28.44,66.08,12.85,17.08,25.99,27.01,37.33,35.58,8.39,6.34,32.17,24.03,65.78,35.58,25.72,8.84,38.59,13.26,40.89,13.57,6.27.84,15.91,1.56,23.11,8.47,4.18,4.01,5.89,8.52,7.11,11.86,5.24,14.27.94,26.99,1.78,27.11Z"/>
</svg>